{
  "asset": {
    "generator": "Khronos glTF Blender I/O v1.6.16",
    "version": "2.0"
  },
  "scene": 0,
  "scenes": [
    {
      "name": "Scene",
      "nodes": [
        3
      ]
    }
  ],
  "nodes": [
    {
      "mesh": 0,
      "name": "Globe",
      "rotation": [
        0,
        0,
        0,
        1
      ],
      "scale": [
        0.3100292980670929,
        0.3100292980670929,
        0.3100292980670929
      ],
      "translation": [
        0,
        0.491693377494812,
        0
      ]
    },
    {
      "children": [
        0
      ],
      "name": "Bone"
    },
    {
      "name": "Displace",
      "translation": [
        -1.1428195238113403,
        1.466232419013977,
        0
      ]
    },
    {
      "children": [
        1,
        2
      ],
      "name": "Armature",
      "scale": [
        3.225501775741577,
        3.225501775741577,
        3.225501775741577
      ],
      "translation": [
        0,
        -1.5859581232070923,
        0
      ]
    },
    {
      "mesh": 0,
      "name": "Globe",
      "rotation": [
        -0.7071068286895752,
        0,
        0,
        0.7071068286895752
      ],
      "scale": [
        0.3100292980670929,
        0.3100292980670929,
        0.3100292980670929
      ],
      "translation": [
        0,
        0,
        0.508306622505188
      ]
    }
  ],
  "animations": [
    {
      "channels": [
        {
          "sampler": 0,
          "target": {
            "node": 1,
            "path": "translation"
          }
        },
        {
          "sampler": 1,
          "target": {
            "node": 1,
            "path": "rotation"
          }
        },
        {
          "sampler": 2,
          "target": {
            "node": 1,
            "path": "scale"
          }
        },
        {
          "sampler": 3,
          "target": {
            "node": 2,
            "path": "translation"
          }
        },
        {
          "sampler": 4,
          "target": {
            "node": 2,
            "path": "rotation"
          }
        },
        {
          "sampler": 5,
          "target": {
            "node": 2,
            "path": "scale"
          }
        },
        {
          "sampler": 6,
          "target": {
            "node": 4,
            "path": "weights"
          }
        }
      ],
      "name": "ArmatureAction",
      "samplers": [
        {
          "input": 6,
          "interpolation": "LINEAR",
          "output": 7
        },
        {
          "input": 6,
          "interpolation": "LINEAR",
          "output": 8
        },
        {
          "input": 6,
          "interpolation": "LINEAR",
          "output": 9
        },
        {
          "input": 6,
          "interpolation": "LINEAR",
          "output": 10
        },
        {
          "input": 6,
          "interpolation": "LINEAR",
          "output": 11
        },
        {
          "input": 6,
          "interpolation": "LINEAR",
          "output": 12
        },
        {
          "input": 6,
          "interpolation": "LINEAR",
          "output": 13
        }
      ]
    }
  ],
  "materials": [
    {
      "doubleSided": true,
      "name": "spherematerial.001",
      "pbrMetallicRoughness": {}
    }
  ],
  "meshes": [
    {
      "extras": {
        "targetNames": [
          "Displace"
        ]
      },
      "name": "Cube.001",
      "primitives": [
        {
          "attributes": {
            "POSITION": 0,
            "NORMAL": 1,
            "TEXCOORD_0": 2
          },
          "indices": 3,
          "material": 0,
          "targets": [
            {
              "POSITION": 4,
              "NORMAL": 5
            }
          ]
        }
      ],
      "weights": [
        0
      ]
    }
  ],
  "accessors": [
    {
      "bufferView": 0,
      "componentType": 5126,
      "count": 98304,
      "max": [
        0.9282809495925903,
        0.9293908476829529,
        0.9271819591522217
      ],
      "min": [
        -0.928280770778656,
        -0.9293909668922424,
        -0.9271820187568665
      ],
      "type": "VEC3"
    },
    {
      "bufferView": 1,
      "componentType": 5126,
      "count": 98304,
      "type": "VEC3"
    },
    {
      "bufferView": 2,
      "componentType": 5126,
      "count": 98304,
      "type": "VEC2"
    },
    {
      "bufferView": 3,
      "componentType": 5125,
      "count": 147456,
      "type": "SCALAR"
    },
    {
      "bufferView": 4,
      "componentType": 5126,
      "count": 98304,
      "max": [
        2.4040887355804443,
        2.1821343898773193,
        2.4521238803863525
      ],
      "min": [
        -2.3471102714538574,
        -2.0718393325805664,
        -2.2138466835021973
      ],
      "type": "VEC3"
    },
    {
      "bufferView": 5,
      "componentType": 5126,
      "count": 98304,
      "type": "VEC3"
    },
    {
      "bufferView": 6,
      "componentType": 5126,
      "count": 30,
      "max": [
        1.25
      ],
      "min": [
        0.041666666666666664
      ],
      "type": "SCALAR"
    },
    {
      "bufferView": 7,
      "componentType": 5126,
      "count": 30,
      "type": "VEC3"
    },
    {
      "bufferView": 8,
      "componentType": 5126,
      "count": 30,
      "type": "VEC4"
    },
    {
      "bufferView": 9,
      "componentType": 5126,
      "count": 30,
      "type": "VEC3"
    },
    {
      "bufferView": 10,
      "componentType": 5126,
      "count": 30,
      "type": "VEC3"
    },
    {
      "bufferView": 11,
      "componentType": 5126,
      "count": 30,
      "type": "VEC4"
    },
    {
      "bufferView": 12,
      "componentType": 5126,
      "count": 30,
      "type": "VEC3"
    },
    {
      "bufferView": 13,
      "componentType": 5126,
      "count": 30,
      "type": "SCALAR"
    }
  ],
  "bufferViews": [
    {
      "buffer": 0,
      "byteLength": 1179648,
      "byteOffset": 0
    },
    {
      "buffer": 0,
      "byteLength": 1179648,
      "byteOffset": 1179648
    },
    {
      "buffer": 0,
      "byteLength": 786432,
      "byteOffset": 2359296
    },
    {
      "buffer": 0,
      "byteLength": 589824,
      "byteOffset": 3145728
    },
    {
      "buffer": 0,
      "byteLength": 1179648,
      "byteOffset": 3735552
    },
    {
      "buffer": 0,
      "byteLength": 1179648,
      "byteOffset": 4915200
    },
    {
      "buffer": 0,
      "byteLength": 120,
      "byteOffset": 6094848
    },
    {
      "buffer": 0,
      "byteLength": 360,
      "byteOffset": 6094968
    },
    {
      "buffer": 0,
      "byteLength": 480,
      "byteOffset": 6095328
    },
    {
      "buffer": 0,
      "byteLength": 360,
      "byteOffset": 6095808
    },
    {
      "buffer": 0,
      "byteLength": 360,
      "byteOffset": 6096168
    },
    {
      "buffer": 0,
      "byteLength": 480,
      "byteOffset": 6096528
    },
    {
      "buffer": 0,
      "byteLength": 360,
      "byteOffset": 6097008
    },
    {
      "buffer": 0,
      "byteLength": 120,
      "byteOffset": 6097368
    }
  ],
  "buffers": [
    {
      "uri": "cubetesting_metalic_data.bin",
      "byteLength": 6097488
    }
  ]
}